HIERARCHY
ROOT hip
{
  OFFSET -0.240055 89.6834 0.190372
  CHANNELS 6 Xposition Yposition Zposition Zrotation Xrotation Yrotation
  JOINT abdomen
  {
    OFFSET 0 7.2397 0
    CHANNELS 6 Xposition Yposition Zposition Zrotation Xrotation Yrotation
    JOINT chest
    {
      OFFSET 0 16.546 0
      CHANNELS 6 Xposition Yposition Zposition Zrotation Xrotation Yrotation
      JOINT neck
      {
        OFFSET 0 34.2149 0
        CHANNELS 6 Xposition Yposition Zposition Zrotation Xrotation Yrotation
        JOINT head
        {
          OFFSET 0 6.2923 0
          CHANNELS 6 Xposition Yposition Zposition Zrotation Xrotation Yrotation
          End Site
          {
            OFFSET 0 21.2161 0
          }
        }
      }
      JOINT lCollar
      {
        OFFSET 4.0639 26.6115 -1.1234
        CHANNELS 6 Xposition Yposition Zposition Zrotation Xrotation Yrotation
        JOINT lShldr
        {
          OFFSET 14.1772 0 0
          CHANNELS 6 Xposition Yposition Zposition Zrotation Xrotation Yrotation
          JOINT lForeArm
          {
            OFFSET 26.1234 0 0
            CHANNELS 6 Xposition Yposition Zposition Zrotation Xrotation Yrotation
            JOINT lHand
            {
              OFFSET 27.7188 0 0
              CHANNELS 6 Xposition Yposition Zposition Zrotation Xrotation Yrotation
              JOINT lThumb1
              {
                OFFSET 2.2979 -0.4685 1.8313
                CHANNELS 6 Xposition Yposition Zposition Zrotation Xrotation Yrotation
                JOINT lThumb2
                {
                  OFFSET 5.2953 0 0
                  CHANNELS 6 Xposition Yposition Zposition Zrotation Xrotation Yrotation
                  JOINT lThumb3
                  {
                    OFFSET 3.0181 0 0
                    CHANNELS 6 Xposition Yposition Zposition Zrotation Xrotation Yrotation
                    End Site
                    {
                      OFFSET 2.6294 0 0
                    }
                  }
                }
              }
              JOINT lIndex1
              {
                OFFSET 9.3793 0.2991 2.5924
                CHANNELS 6 Xposition Yposition Zposition Zrotation Xrotation Yrotation
                JOINT lIndex2
                {
                  OFFSET 4.3461 0 0
                  CHANNELS 6 Xposition Yposition Zposition Zrotation Xrotation Yrotation
                  JOINT lIndex3
                  {
                    OFFSET 2.1666 0 0
                    CHANNELS 6 Xposition Yposition Zposition Zrotation Xrotation Yrotation
                    End Site
                    {
                      OFFSET 2.2048 0 0
                    }
                  }
                }
              }
              JOINT lMid1
              {
                OFFSET 9.4769 0.8376 0.2947
                CHANNELS 6 Xposition Yposition Zposition Zrotation Xrotation Yrotation
                JOINT lMid2
                {
                  OFFSET 4.772 0 0
                  CHANNELS 6 Xposition Yposition Zposition Zrotation Xrotation Yrotation
                  JOINT lMid3
                  {
                    OFFSET 2.8722 0 0
                    CHANNELS 6 Xposition Yposition Zposition Zrotation Xrotation Yrotation
                    End Site
                    {
                      OFFSET 2.0959 0 0
                    }
                  }
                }
              }
              JOINT lRing1
              {
                OFFSET 8.6586 1.0176 -1.7016
                CHANNELS 6 Xposition Yposition Zposition Zrotation Xrotation Yrotation
                JOINT lRing2
                {
                  OFFSET 4.5461 0 0
                  CHANNELS 6 Xposition Yposition Zposition Zrotation Xrotation Yrotation
                  JOINT lRing3
                  {
                    OFFSET 2.506 0 0
                    CHANNELS 6 Xposition Yposition Zposition Zrotation Xrotation Yrotation
                    End Site
                    {
                      OFFSET 2.2023 0 0
                    }
                  }
                }
              }
              JOINT lPinky1
              {
                OFFSET 7.6901 0.6618 -3.9096
                CHANNELS 6 Xposition Yposition Zposition Zrotation Xrotation Yrotation
                JOINT lPinky2
                {
                  OFFSET 3.2119 0 0
                  CHANNELS 6 Xposition Yposition Zposition Zrotation Xrotation Yrotation
                  JOINT lPinky3
                  {
                    OFFSET 1.924 0 0
                    CHANNELS 6 Xposition Yposition Zposition Zrotation Xrotation Yrotation
                    End Site
                    {
                      OFFSET 1.7829 0 0
                    }
                  }
                }
              }
            }
          }
        }
      }
      JOINT rCollar
      {
        OFFSET -4.0677 26.6109 -1.1234
        CHANNELS 6 Xposition Yposition Zposition Zrotation Xrotation Yrotation
        JOINT rShldr
        {
          OFFSET -14.1772 0 0
          CHANNELS 6 Xposition Yposition Zposition Zrotation Xrotation Yrotation
          JOINT rForeArm
          {
            OFFSET -26.1234 0 0
            CHANNELS 6 Xposition Yposition Zposition Zrotation Xrotation Yrotation
            JOINT rHand
            {
              OFFSET -27.7188 0 0
              CHANNELS 6 Xposition Yposition Zposition Zrotation Xrotation Yrotation
              JOINT rThumb1
              {
                OFFSET -2.2979 -0.4684 1.8313
                CHANNELS 6 Xposition Yposition Zposition Zrotation Xrotation Yrotation
                JOINT rThumb2
                {
                  OFFSET -5.2953 0 0
                  CHANNELS 6 Xposition Yposition Zposition Zrotation Xrotation Yrotation
                  JOINT rThumb3
                  {
                    OFFSET -3.0181 0 0
                    CHANNELS 6 Xposition Yposition Zposition Zrotation Xrotation Yrotation
                    End Site
                    {
                      OFFSET -2.6294 0 0
                    }
                  }
                }
              }
              JOINT rIndex1
              {
                OFFSET -9.3793 0.2991 2.5924
                CHANNELS 6 Xposition Yposition Zposition Zrotation Xrotation Yrotation
                JOINT rIndex2
                {
                  OFFSET -4.3461 0 0
                  CHANNELS 6 Xposition Yposition Zposition Zrotation Xrotation Yrotation
                  JOINT rIndex3
                  {
                    OFFSET -2.1666 0 0
                    CHANNELS 6 Xposition Yposition Zposition Zrotation Xrotation Yrotation
                    End Site
                    {
                      OFFSET -2.2048 0 0
                    }
                  }
                }
              }
              JOINT rMid1
              {
                OFFSET -9.4769 0.8376 0.2947
                CHANNELS 6 Xposition Yposition Zposition Zrotation Xrotation Yrotation
                JOINT rMid2
                {
                  OFFSET -4.772 0 0
                  CHANNELS 6 Xposition Yposition Zposition Zrotation Xrotation Yrotation
                  JOINT rMid3
                  {
                    OFFSET -2.8722 0 0
                    CHANNELS 6 Xposition Yposition Zposition Zrotation Xrotation Yrotation
                    End Site
                    {
                      OFFSET -2.0959 0 0
                    }
                  }
                }
              }
              JOINT rRing1
              {
                OFFSET -8.6586 1.0176 -1.7016
                CHANNELS 6 Xposition Yposition Zposition Zrotation Xrotation Yrotation
                JOINT rRing2
                {
                  OFFSET -4.5461 0 0
                  CHANNELS 6 Xposition Yposition Zposition Zrotation Xrotation Yrotation
                  JOINT rRing3
                  {
                    OFFSET -2.506 0 0
                    CHANNELS 6 Xposition Yposition Zposition Zrotation Xrotation Yrotation
                    End Site
                    {
                      OFFSET -2.2023 0 0
                    }
                  }
                }
              }
              JOINT rPinky1
              {
                OFFSET -7.6901 0.6618 -3.9096
                CHANNELS 6 Xposition Yposition Zposition Zrotation Xrotation Yrotation
                JOINT rPinky2
                {
                  OFFSET -3.2119 0 0
                  CHANNELS 6 Xposition Yposition Zposition Zrotation Xrotation Yrotation
                  JOINT rPinky3
                  {
                    OFFSET -1.924 0 0
                    CHANNELS 6 Xposition Yposition Zposition Zrotation Xrotation Yrotation
                    End Site
                    {
                      OFFSET -1.7829 0 0
                    }
                  }
                }
              }
            }
          }
        }
      }
    }
  }
  JOINT lThigh
  {
    OFFSET 8.7379 -0.0029 0.0005
    CHANNELS 6 Xposition Yposition Zposition Zrotation Xrotation Yrotation
    JOINT lShin
    {
      OFFSET 0 -46.6676 0
      CHANNELS 6 Xposition Yposition Zposition Zrotation Xrotation Yrotation
      JOINT lFoot
      {
        OFFSET 0 -40.1476 0
        CHANNELS 6 Xposition Yposition Zposition Zrotation Xrotation Yrotation
        JOINT lToes
        {
          OFFSET 0 -8.8846 14.2294
          CHANNELS 6 Xposition Yposition Zposition Zrotation Xrotation Yrotation
          End Site
          {
            OFFSET 0 0 6.296
          }
        }
      }
    }
  }
  JOINT rThigh
  {
    OFFSET -8.7379 0.0029 -0.0005
    CHANNELS 6 Xposition Yposition Zposition Zrotation Xrotation Yrotation
    JOINT rShin
    {
      OFFSET 0 -46.6676 0
      CHANNELS 6 Xposition Yposition Zposition Zrotation Xrotation Yrotation
      JOINT rFoot
      {
        OFFSET 0 -40.1476 0
        CHANNELS 6 Xposition Yposition Zposition Zrotation Xrotation Yrotation
        JOINT rToes
        {
          OFFSET 0 -8.8846 14.2294
          CHANNELS 6 Xposition Yposition Zposition Zrotation Xrotation Yrotation
          End Site
          {
            OFFSET 0 0 6.296
          }
        }
      }
    }
  }
}
MOTION
Frames:	4
Frame Time:	0.0333333
-1.25597 89.3449 0.187245 -1.96881 -4.00534 -42.7058 -2.22045e-16 7.2397 0 -0.285566 7.28614 0.999098 4.44089e-16 16.546 -1.77636e-15 -0.561985 16.4281 1.82512 -5.55112e-16 34.2149 -7.10543e-15 12.4739 33.9843 -33.311 0 6.2923 1.42109e-14 4.74865 -33.828 -39.9844 4.0639 26.6115 -1.1234 -0.644714 -3.86365 1.38502 14.1772 0 -3.55271e-15 -66.0238 -5.48559 6.4952 26.1234 -1.42109e-14 7.10543e-15 -3.51819 2.74171 -56.3347 27.7188 -1.42109e-14 -7.10543e-15 16.7454 -0.723491 -4.19109 2.2979 -0.4685 1.8313 61.0297 79.0047 -91.69 5.2953 0 0 -8.54023 2.60418 3.54067 3.0181 0 0 12.4883 -0.000108179 -1.55937e-06 9.3793 0.2991 2.5924 -32.2975 3.08321 0.0338919 4.3461 -7.10543e-15 0 -50.7327 -1.28818 1.20534 2.1666 0 1.42109e-14 -2.1684 3.79627e-06 -5.13813e-06 9.4769 0.8376 0.2947 -41.0513 -9.06833 6.74892 4.772 0 -7.10543e-15 -56.2573 -1.66028 2.47533 2.8722 0 -7.10543e-15 3.95741 0.0711029 0.399404 8.6586 1.0176 -1.7016 -56.4685 -9.54103 5.97213 4.5461 0 7.10543e-15 -66.8076 1.66324 -1.7784 2.506 -1.42109e-14 -7.10543e-15 6.76051 3.9472e-06 -9.18624e-05 7.6901 0.6618 -3.9096 -61.3158 -17.152 -0.785603 3.2119 3.55271e-15 0 -73.0273 -3.98438 9.8334 1.924 1.42109e-14 -7.10543e-15 4.41309 -7.33376e-06 -5.03774e-06 -4.0677 26.6109 -1.1234 2.41905 -2.80718 4.31321 -14.1772 0 0 67.8036 -12.7135 -23.734 -26.1234 0 0 4.23068 -0.483332 60.8968 -27.7188 -1.42109e-14 0 -10.8714 2.33706 6.3817 -2.2979 -0.4684 1.8313 -24.5526 71.9837 62.678 -5.2953 -1.42109e-14 -3.55271e-15 20.391 2.37118 -4.56831 -3.0181 7.10543e-15 -7.10543e-15 -12.4883 -9.70263e-05 0.00011128 -9.3793 0.2991 2.5924 40.8067 -1.15875 -6.4837 -4.3461 -3.55271e-15 -7.10543e-15 60.7124 -2.0229 -1.83515 -2.1666 7.10543e-15 0 2.16819 3.02639e-06 3.45788e-06 -9.4769 0.8376 0.2947 37.1713 -6.04098 -1.11912 -4.772 0 7.10543e-15 82.4726 -3.8175 -3.7066 -2.8722 -1.42109e-14 0 -3.9575 0.070997 -0.399398 -8.6586 1.0176 -1.7016 45.2451 -1.1547 0.506337 -4.5461 0 -7.10543e-15 89.497 3.71486 2.93303 -2.506 0 -7.10543e-15 -6.7605 -9.06625e-07 -2.83568e-06 -7.6901 0.6618 -3.9096 46.2075 -14.0583 4.80708 -3.2119 -1.77636e-15 -7.10543e-15 93.0153 -4.43716 -8.86449 -1.924 -1.42109e-14 -7.10543e-15 -4.41301 6.73177e-07 3.48786e-06 8.7379 -0.0029 0.0005 12.4285 -23.396 18.5378 3.55271e-15 -46.6676 -7.10543e-15 10.0901 38.9279 -16.586 0 -40.1476 -1.77636e-15 -9.86559 -12.2151 6.49097 0 -8.8846 14.2294 0.0001 0 3.18055e-15 -8.7379 0.0029 -0.0005 -15.3589 2.33779 -22.948 3.55271e-15 -46.6676 -1.77636e-15 -12.1569 34.0476 24.3078 3.55271e-15 -40.1476 0 9.08342 -30.7262 -5.53561 0 -8.8846 14.2294 -1.59028e-15 0 3.18055e-15 
-1.29188 89.5046 0.190042 -2.04561 -3.88884 -46.5413 -2.22045e-16 7.2397 0 -0.160607 7.44441 0.0823819 2.22045e-16 16.546 8.88178e-16 -0.218327 16.7479 -0.0467201 -9.99201e-16 34.2149 7.10543e-15 11.8971 33.6616 -32.9077 -7.10543e-15 6.2923 -2.84217e-14 6.10435 -34.0685 -40.2227 4.0639 26.6115 -1.1234 -0.876421 -3.99056 0.378298 14.1772 0 0 -65.9626 -6.21298 8.17763 26.1234 1.42109e-14 0 -3.55888 2.56392 -57.4234 27.7188 0 7.10543e-15 16.7042 -0.922672 -4.67631 2.2979 -0.4685 1.8313 60.0511 78.8222 -90.3337 5.2953 1.42109e-14 0 -8.66593 2.41777 3.55932 3.0181 -7.10543e-15 0 12.4883 -0.000108179 -1.55937e-06 9.3793 0.2991 2.5924 -30.1934 2.90254 -0.853133 4.3461 -7.10543e-15 7.10543e-15 -48.212 -1.23215 1.31787 2.1666 0 0 -2.1684 3.79627e-06 -5.13813e-06 9.4769 0.8376 0.2947 -38.9111 -8.87964 7.12833 4.772 0 0 -53.7523 -1.55194 2.44252 2.8722 0 0 3.95741 0.0711029 0.399404 8.6586 1.0176 -1.7016 -54.6328 -9.34018 6.74628 4.5461 3.55271e-15 0 -64.3955 1.59027 -1.7838 2.506 1.42109e-14 0 6.76051 3.9472e-06 -9.18624e-05 7.6901 0.6618 -3.9096 -58.8909 -17.2726 0.85566 3.2119 7.10543e-15 0 -70.6829 -3.58516 9.47982 1.924 1.42109e-14 0 4.41309 -7.33376e-06 -5.03774e-06 -4.0677 26.6109 -1.1234 2.25091 -2.67994 2.96319 -14.1772 0 -7.10543e-15 67.8046 -12.3375 -24.0369 -26.1234 0 0 4.0878 -0.0344979 61.7045 -27.7188 0 -7.10543e-15 -12.0916 2.33559 6.51595 -2.2979 -0.4684 1.8313 -24.3432 72.125 62.5501 -5.2953 0 -7.10543e-15 20.3953 2.42182 -4.55651 -3.0181 0 0 -12.4883 -9.70263e-05 0.00011128 -9.3793 0.2991 2.5924 42.6202 -0.607271 -6.63085 -4.3461 0 -7.10543e-15 61.6821 -2.054 -1.79837 -2.1666 0 7.10543e-15 2.16819 3.02639e-06 3.45788e-06 -9.4769 0.8376 0.2947 38.3548 -6.06192 -1.08258 -4.772 0 0 83.8907 -3.90846 -3.69785 -2.8722 0 -7.10543e-15 -3.9575 0.070997 -0.399398 -8.6586 1.0176 -1.7016 46.4747 -1.27815 0.609088 -4.5461 3.55271e-15 0 90.9229 3.78841 2.91371 -2.506 1.42109e-14 -7.10543e-15 -6.7605 -9.06625e-07 -2.83568e-06 -7.6901 0.6618 -3.9096 47.2947 -14.2463 4.87983 -3.2119 0 7.10543e-15 93.992 -4.60669 -8.92596 -1.924 0 0 -4.41301 6.73177e-07 3.48786e-06 8.7379 -0.0029 0.0005 13.379 -22.0888 19.4579 -1.77636e-15 -46.6676 -7.10543e-15 9.29601 38.7725 -13.4945 3.55271e-15 -40.1476 0 -10.4959 -12.3161 6.41169 0 -8.8846 14.2294 0.0001 1.98785e-16 -3.18055e-15 -8.7379 0.0029 -0.0005 -15.797 0.696207 -23.1061 3.55271e-15 -46.6676 -3.55271e-15 -13.0724 34.1968 25.8777 -7.10543e-15 -40.1476 -3.55271e-15 9.40397 -30.1659 -5.33576 -7.10543e-15 -8.8846 14.2294 -7.95139e-16 0 9.54166e-15 
-1.32586 89.648 0.19321 -2.08074 -3.80831 -50.3627 0 7.2397 0 -0.0643798 7.5604 -0.823226 0 16.546 -8.88178e-16 0.0872258 16.9796 -1.88726 -1.33227e-15 34.2149 -7.10543e-15 11.0217 33.311 -32.25 -7.10543e-15 6.2923 -1.42109e-14 7.40013 -34.1601 -40.3706 4.0639 26.6115 -1.1234 -1.07012 -4.10293 -0.531393 14.1772 -2.84217e-14 1.42109e-14 -65.7104 -6.93602 9.81569 26.1234 0 -7.10543e-15 -3.64608 2.21021 -58.4463 27.7188 0 0 16.5344 -0.982445 -4.34054 2.2979 -0.4685 1.8313 59.2856 78.4855 -89.2552 5.2953 0 -7.10543e-15 -8.84872 2.22184 3.56038 3.0181 0 0 12.4883 -0.000108179 -1.55937e-06 9.3793 0.2991 2.5924 -27.7535 2.61604 -1.75315 4.3461 0 -7.10543e-15 -45.3358 -1.16221 1.44312 2.1666 0 7.10543e-15 -2.1684 3.79627e-06 -5.13813e-06 9.4769 0.8376 0.2947 -36.4137 -8.61784 7.5272 4.772 7.10543e-15 0 -50.9492 -1.43255 2.39994 2.8722 3.55271e-15 7.10543e-15 3.95741 0.0711029 0.399404 8.6586 1.0176 -1.7016 -52.3712 -9.00082 7.59644 4.5461 3.55271e-15 -1.42109e-14 -61.6599 1.50727 -1.78621 2.506 0 -7.10543e-15 6.76051 3.9472e-06 -9.18624e-05 7.6901 0.6618 -3.9096 -55.9881 -17.3064 2.67059 3.2119 -3.55271e-15 7.10543e-15 -67.9757 -3.14292 9.05209 1.924 0 0 4.41309 -7.33376e-06 -5.03774e-06 -4.0677 26.6109 -1.1234 2.01808 -2.57885 1.90546 -14.1772 0 -7.10543e-15 67.6653 -12.1771 -24.7519 -26.1234 0 -1.42109e-14 3.93408 0.293597 62.5219 -27.7188 7.10543e-15 -7.10543e-15 -13.3188 2.25494 6.69293 -2.2979 -0.4684 1.8313 -24.7472 72.4487 63.237 -5.2953 0 3.55271e-15 20.422 2.37691 -4.68651 -3.0181 0 0 -12.4883 -9.70263e-05 0.00011128 -9.3793 0.2991 2.5924 44.3178 0.00964366 -6.87428 -4.3461 3.55271e-15 0 62.5817 -2.08235 -1.76379 -2.1666 0 3.55271e-15 2.16819 3.02639e-06 3.45788e-06 -9.4769 0.8376 0.2947 39.3898 -6.09478 -1.06902 -4.772 0 7.10543e-15 85.2503 -3.99546 -3.68732 -2.8722 1.42109e-14 7.10543e-15 -3.9575 0.070997 -0.399398 -8.6586 1.0176 -1.7016 47.4506 -1.37842 0.691558 -4.5461 0 7.10543e-15 92.2187 3.85455 2.89455 -2.506 1.42109e-14 0 -6.7605 -9.06625e-07 -2.83568e-06 -7.6901 0.6618 -3.9096 48.272 -14.4118 4.95225 -3.2119 -3.55271e-15 -7.10543e-15 95.503 -4.84912 -9.0518 -1.924 -1.42109e-14 -7.10543e-15 -4.41301 6.73177e-07 3.48786e-06 8.7379 -0.0029 0.0005 14.1517 -20.7376 20.2328 0 -46.6676 -7.10543e-15 8.49563 38.5797 -10.3255 3.55271e-15 -40.1476 -1.77636e-15 -11.1868 -12.3711 6.33065 0 -8.8846 14.2294 0.0001 -1.98785e-16 3.18055e-15 -8.7379 0.0029 -0.0005 -16.1535 -1.0333 -23.1897 -3.55271e-15 -46.6676 0 -14.0142 34.4298 27.1773 3.55271e-15 -40.1476 -1.77636e-15 9.81978 -29.5167 -5.13266 0 -8.8846 14.2294 -4.41391e-32 -3.97569e-16 -6.36111e-15 
-1.36695 89.7725 0.237126 -2.10004 -3.83135 -54.0372 -4.44089e-16 7.2397 0 -0.0858032 7.64298 -1.46724 0 16.546 -8.88178e-16 0.157455 17.1463 -3.16978 -3.88578e-16 34.2149 7.10543e-15 10.351 32.8664 -31.8053 0 6.2923 1.42109e-14 8.57411 -34.0889 -40.5745 4.0639 26.6115 -1.1234 -1.20075 -4.22881 -1.50836 14.1772 -2.84217e-14 0 -65.1219 -7.47358 10.9765 26.1234 0 -7.10543e-15 -3.77105 1.76926 -59.3338 27.7188 0 0 17.3596 -1.21949 -3.90061 2.2979 -0.4685 1.8313 58.3532 78.0103 -88.0553 5.2953 0 0 -9.05494 2.04093 3.53868 3.0181 -7.10543e-15 0 12.4883 -0.000108179 -1.55937e-06 9.3793 0.2991 2.5924 -24.9492 2.21547 -2.6274 4.3461 0 0 -42.1894 -1.07673 1.57456 2.1666 -7.10543e-15 0 -2.1684 3.79627e-06 -5.13813e-06 9.4769 0.8376 0.2947 -33.5526 -8.26633 7.90917 4.772 0 -7.10543e-15 -47.8227 -1.303 2.34341 2.8722 7.10543e-15 0 3.95741 0.0711029 0.399404 8.6586 1.0176 -1.7016 -49.7713 -8.48686 8.4622 4.5461 -3.55271e-15 0 -58.6324 1.41542 -1.7831 2.506 7.10543e-15 0 6.76051 3.9472e-06 -9.18624e-05 7.6901 0.6618 -3.9096 -52.6919 -17.2187 4.56877 3.2119 3.55271e-15 0 -64.9819 -2.68556 8.54909 1.924 0 0 4.41309 -7.33376e-06 -5.03774e-06 -4.0677 26.6109 -1.1234 2.0393 -2.40937 0.185598 -14.1772 2.84217e-14 0 67.0482 -11.8735 -25.2575 -26.1234 0 0 3.96518 0.734321 63.0604 -27.7188 0 0 -14.0715 2.12999 6.77096 -2.2979 -0.4684 1.8313 -23.9367 72.4303 62.2691 -5.2953 0 7.10543e-15 20.456 2.50332 -4.52721 -3.0181 7.10543e-15 0 -12.4883 -9.70263e-05 0.00011128 -9.3793 0.2991 2.5924 46.0025 0.709986 -7.13192 -4.3461 0 3.55271e-15 63.4189 -2.10811 -1.73115 -2.1666 -1.42109e-14 7.10543e-15 2.16819 3.02639e-06 3.45788e-06 -9.4769 0.8376 0.2947 40.4293 -6.11075 -1.03552 -4.772 0 -7.10543e-15 86.5305 -4.077 -3.67511 -2.8722 0 7.10543e-15 -3.9575 0.070997 -0.399398 -8.6586 1.0176 -1.7016 48.5057 -1.48893 0.772052 -4.5461 -3.55271e-15 0 93.5297 3.92173 2.87332 -2.506 -2.84217e-14 0 -6.7605 -9.06625e-07 -2.83568e-06 -7.6901 0.6618 -3.9096 49.3586 -14.5553 5.10234 -3.2119 -3.55271e-15 7.10543e-15 96.883 -5.06847 -9.15255 -1.924 1.42109e-14 -7.10543e-15 -4.41301 6.73177e-07 3.48786e-06 8.7379 -0.0029 0.0005 14.6594 -19.3319 20.8351 3.55271e-15 -46.6676 7.10543e-15 7.69583 38.3916 -7.19311 -3.55271e-15 -40.1476 1.77636e-15 -11.8518 -12.4304 6.25219 -3.55271e-15 -8.8846 14.2294 0.0001 5.96354e-16 -3.18055e-15 -8.7379 0.0029 -0.0005 -16.4132 -2.70617 -23.1704 0 -46.6676 0 -15.0022 34.7044 28.1047 -3.55271e-15 -40.1476 0 10.2922 -28.8549 -4.94512 3.55271e-15 -8.8846 14.2294 -3.97569e-16 1.98785e-16 -0 
